<?xml version="1.0" encoding="UTF-8"?>
<svg id="Layer_1" xmlns="http://www.w3.org/2000/svg" version="1.1" viewBox="0 0 86.3 46.3">
  <!-- Generator: Adobe Illustrator 30.1.0, SVG Export Plug-In . SVG Version: 2.1.1 Build 136)  -->
  <defs>
    <style>
      .st0, .st1 {
        isolation: isolate;
      }

      .st1 {
        mix-blend-mode: hue;
      }

      .st1, .st2 {
        fill: #82868c;
      }
    </style>
  </defs>
  <g class="st0">
    <g id="Layer_2">
      <g id="Layer_1-2">
        <path class="st2" d="M13.6,36.9h0s0,0,0,0h0Z"/>
        <path class="st1" d="M85.5,38.2c-.4-.2-.9-.3-1.3-.5,0,0-.2,0-.3,0-.1,0-.3,0-.4,0-.2-.1-.5-.2-.7-.3-.8,0-1.7-.2-2.5-.5,0,0-.2,0-.2,0-.1.2-.3.2-.5.2-.4,0-.7-.3-.7-.7-.8-.3-1.5-.7-2.2-1.2-.2,0-.4.1-.6.2-.2,0-.3-.1-.5-.2-.1,0-2.1,0-1.4,0-.4,0-.8-.1-1.2-.3-.4-.5-.8-.9-1.5-1.2,0,.2-.2.4-.5.5-.6,0-1.5.2-2,0-.2,0-.3-.2-.4-.4,0,0,0,0,0,0-.5.3-1.2,0-1.7-.2-.5-.2-1-.3-1.4-.4-.2.2-.5.2-.8,0-.2-.1-.6-.2-1-.3-.6-.2-1.1-.3-1.7-.4-.6,0-1.1-.2-1.7-.2-.2,0-.5,0-.7,0-.1,0-.3,0-.2,0-.4.3-1,.2-1.1-.3,0,0,0,0,0,0,0,0-.2,0-.3,0,0,0,0,0,0,0-.4-.1-.8-.2-1.2-.1-.1,0-.7.1-1,.2,0,0,0,0,0,0,0,0,0,0-.1,0,0,0-.1,0-.2,0-.5-.3-1.2-.5-1.9-.3-.2,0-.4.1-.6.2-.1,0-.3,0-.4-.1-.8-.3-1.5-.2-2.3-.2-.7,0-1.4,0-2.1.2-.4.1-.9.3-1.3.4h0s0,0-.1,0c0,0,0,0,0,0-.6-.6-1.4-1-2.3-1.2-.6-.1-1.3-.2-1.9-.2-1.6-.9-3.3.2-3.7,1.9,0,0,0,0-.1,0-.3,0-.8-.2-1.2-.2-.7-.7-1.6-1-2.8-1-.2,0-1.5,0-1.6.3,0,0,0,0,0,0-.7.2-1.1.7-1.5,1.2-.1,0-.2.1-.3.1,0,0,0,0,0,0-.5.2-1.2.4-1.5.9,0,0,0,0-.1,0h0c-.3,0-.5,0-.8.2-.2,0-.4.2-.5.3-.5,0-.9.2-1.3.5,0,0-.1,0-.1.1-.2,0-.4,0-.5,0-.2-.1-.5-.2-.8-.2-.4,0-.8,0-1.1,0-.1,0-.2-.1-.4-.2-.3-.1-.6-.2-.9-.2-.3-.3-.6-.6-1-.7-.5-.2-.9-.2-1.2-.2-.2-.2-.4-.3-.5-.4-.5-.3-1.1-.4-1.6-.3-.2-.3-.8-.9-1.3-1.1-.3-.1-.6-.2-.9-.2-.6-.4-1.4-.6-2.1-.7,0-.2.1-.5.1-.8,0,0,0-.1,0-.2.5-.6.8-1.2.8-2s0-.2,0-.3c0,0,0,0,0-.2,0-.1.1-.3.1-.5,0-.1,0-.2,0-.3.2-.2.5-.5.6-.7.3-.6.4-1.3.3-1.9,0,0,0-.2-.1-.3,0-.1,0-.2,0-.4.3-.5.6-1.1.5-1.9.2-.3.2-.7.3-1.1h0c.3-.6.5-1.1.4-1.8,0,0,.1-.2.2-.3.4-.6.5-1.2.4-1.9.2-.2.3-.5.4-.8.1-.3.2-.6.2-.9.1-.1.2-.2.2-.4.4,0,.9-.2,1.2-.4,0,0,.3-.2.4-.3.2,0,.7-.3.8-.3h0c.3.1.6.2.9.2,1.1,0,1.5-.6,2.3-1.1.4-.2,1.1-.2,1.6-.8.2-.2.4-.5.5-.7,0,0,0,0,.1,0,.3,0,.5-.2.8-.4.9-.6,1.1-1.3,1.2-2.1.5-.7.9-1.3.6-2.4,0-.3-.2-.5-.3-.8,0-.2,0-.2,0,0,.1.3,0,0,0,0,0,0,0-.2-.1-.2,0-.3.1-.7.1-1,0-1-.5-1.9-1.2-2.6-.6-.6-1.4-1.1-2.3-1.2-.2,0-.4,0-.6,0-.3-.1-.6-.2-.9-.3-.6,0-1.1,0-1.7.3,0,0-.2.1-.3.2-.6.1-1.2.3-1.7.7-.2.2-.4.4-.5.6-.5,0-.9.3-1.3.6-.5.4-.8,1.1-1,1.4,0,0,0,0,0,.2-.2.2-.5.4-.6.6-.3.5-.5.9-.5,1.5,0,0-.1.2-.2.2-.1.2-.2.5-.3.7,0,0,0,0,0,0-.4.4-.6.9-.7,1.4,0,.3,0,.5,0,.7-.3.1-.6.3-.9.5,0,0,0,0-.1,0-.7,0-1.4,0-2.1.1-.8.1-1.5.1-2.1.7h0c-.3,0-.6.2-.9.3-.3.1-.6.3-.9.4-.8,0-1.6.4-2.3,1.1-.1,0-.2.2-.3.3,0,0,0,.1-.1.2,0,0,0-.1.2-.3-.4.2-.7.5-1,.8,0,0,0,.1-.1.2-.4.2-.7.5-1,.8-.1,0-.2.1-.2.1-.3.2-.7.4-.9.8-.2.2-.3.4-.4.7,0,0-.2.1-.2.2-.3.3-.6.7-.7,1.2,0,.1,0,.2,0,.3-.5.6-.8,1.3-.9,2.2,0,.1-.1.2-.1.2-.3.6-.4,1.3-.2,1.9.1.5.4.9.7,1.2,0,0,.1.1.2.1,0,0,.2.2.3.2,1.6,2.4,5.5,0,4.2-2.7,0,0,0-.1,0-.2.5-.4.8-.9.9-1.5,0,0,0-.1.1-.1.1-.2.3-.3.3-.5,0,0,.2-.1.3-.2h0s0,0,0,0c0,0,0,0,0,0,.5-.1.9-.3,1.3-.7.3-.3.5-.6.6-1,0,0,.1,0,.2-.1.3,0,.6,0,1,0,.4-.1.9-.4,1.2-.7.5,0,.9,0,1.3-.3.2-.1.5-.3.7-.6,0,0,0,0,0,0,0,0,0,.2-.1.3-.1.4-.2.7-.2,1.1-.3.3-.6.7-.7,1-.3.6-.3,1.3,0,1.9,0,0,0,0-.1,0-.5.5-.8,1.2-.8,1.9s0,.7.2,1c0,.3-.1.7-.2,1,0,.3-.1.5-.2.7-.4.4-.6.9-.7,1.5,0,.3-.1.6-.1,1,0,.2,0,.3,0,.5,0,.3-.2.5-.2.8,0,0-.1.1-.2.2,0,0,0,0,0,0-.1.1-.2.4-.3.5-.2.4-.3.7-.4,1.1-.4.5-.5,1-.6,1.6,0,.3,0,.5,0,.7-.5.1-.9.4-1.3.7,0,0,0,0,0,0,0,0,0,0,0,0,0,0-.2.1-.2.2-.3.2-.6.4-.8.6-.2.2-.4.4-.5.7,0,0,0,0,0,0,0,0-.1,0-.1,0,0,0,0,0,0,0,0,0-.2,0-.3,0-.7.2-.8.3-1.5.6-.7.4-1.3.8-1.7,1.6,0,0,0,0,0,0-.2.1-.4.3-.5.5-.3.4-.5.8-.5,1.4,0,0,0,0,0,0-.8.6-1.1,1.5-1,2.9,0,.4,0,1.2.4,1.8.2.3.4.6.7.8.3.8.8,1.6,1.8,2.2,1.3.8,2.5.4,3.6-.1h0c.4,0,.8-.2,1.2-.4.2-.1.4-.3.6-.4,0,0,.2,0,.4-.2.6-.3,1-.8,1.3-1.5.4-.3.7-.7.9-1.2.3-.6.4-1.2.4-1.8.2-.2.3-.4.4-.7.3-.7.1-1.4.2-2.1,0-.1.2-.2.2-.3.1-.2.2-.3.3-.5.1-.3.3-.5.4-.8,0,0,.2,0,.3,0,.3.6.8,1.1,1.5,1.3.3,0,.6.1,1,0,.2.2.5.5.9.7.5.3,1,.4,1.5.4.2.3.5.5.9.7.2,0,.4.1.6.2,0,0,0,0,0,0,.3.3.6.5,1,.6.4.1.8.2,1.2.1.5.3,1,.5,1.6.6.4,0,.8,0,1.2-.1.2,0,.4.2.7.2.3,0,.5,0,.8,0,.7.3,1.3.3,2,0,.7-.2,1.2-.6,1.5-1,.1,0,.2,0,.3-.1.3-.1.5-.3.8-.5,0,0,0,0,0,0,.4,0,.7-.3,1-.5.3-.2.6-.4.8-.6.1,0,.3,0,.5-.2.2-.1.7-.2,1.1-.6.2.1.3.3.5.4.7.4,1.4.4,2.1.2.2,0,.6,0,.7.1.4.1.8.2,1.3.2.9,0,1.7-.2,2.5-.6.7-.4,1.2-.8,1.4-1.2.1,0,.2-.1.3-.2,0,0,0,0,.2,0,0,0,0,0,0,0,.6.6,1.3.9,2.4,1.1,1.6.3,2.2-.4,3.6-.5.2,0,1.3.1,1.5,0h0c.2,0,.3.2.5.3.7.4,1.5.5,2.3.2,0,0,.3-.2.5-.2.4.1.8.2,1.3.2.3,0,.7,0,1,0,.4.2.9.4,1.3.4s.8-.1,1.2-.3c.4.2.8.3,1.3.2.1,0,.3,0,.4,0,.1,0,.3.2.5.2.4.2.8.2,1.1.1,0,0,.1,0,.2,0,.5-.3,1.1-.5,1.8-.5s1.1.1,1.5.4c.8,0,1.5,0,2.3,0,0,0,.1,0,.2,0,.4-.2.8-.3,1.3-.3.9,0,1.6.3,2.1.8.5.1,1.1.2,1.6.4,0-.2.3-.3.6-.3s.5.2.6.5c.2,0,.4,0,.7,0,.7,0,1.2.2,1.7.5,0,0,.2-.2.4-.2.3,0,.4.1.6.3h1.6c.4-.1.9-.3,1.5-.3s.3,0,.5,0c.1-.2.3-.3.5-.3s0,0,0,0c0,0,.2-.1.4-.1.5,0,.7.5.6.8.2,0,.4,0,.6,0,0-.3.3-.5.6-.5s.6.2.6.5c.4,0,.8,0,1.2,0h.2c-.2-.5-.4-.9-.8-1.3h0ZM21.6,7.9c.3-.2.5-.5.7-.7,0,0,.1-.3.2-.6,0,0,0,0,0,0s0,0,0,0c0,0,.1,0,.3-.1.5-.2,1-.5,1.3-.9,0,0,0,0,0,0,0,.5.1.9.4,1.2,0,0-.1,0-.3.1-.5.3-.9.6-1.2,1.1,0,0,0,.1,0,.2,0,0-.1,0-.2,0,0,0,0,0,0,0-.4-.1-.8-.1-1.2,0,0,0,.1-.2.1-.3Z"/>
        <path class="st2" d="M21.7,6.3c0,0,0,.1-.1.2,0-.3,0-.4.1-.2Z"/>
        <path class="st2" d="M18.7,15.3h0,0s0,0,0,0Z"/>
        <path class="st2" d="M18.1,15.4s0,0,0,0h0s0,0,0,0c0,0,0-.1,0-.1,0,0,0,0,0,.1Z"/>
        <path class="st2" d="M15.4,27.7c0,0,0,.1,0,.1,0,0,0,0,0,0,0-.1,0-.2,0-.2,0,0,0,0,0,.1Z"/>
        <path class="st2" d="M4.7,22.7c-.2.1-.2.1,0,0h0Z"/>
        <path class="st2" d="M4,35.7h.2-.2Z"/>
        <path class="st2" d="M6.1,41.9c.2.3.3.9,0,0h0Z"/>
        <path class="st2" d="M13.1,20.2c.1.2,0,.2,0,0h0Z"/>
        <path class="st2" d="M17.8,36.5s0,0,0,0c0,0,0,0,0,0,0,0,.1,0,.1,0,0,0,0,0-.1.1Z"/>
        <path class="st2" d="M19,37.1c0-.2,0-.2,0,0h0Z"/>
        <path class="st2" d="M24,36.7h0c0,.3,0,.2,0,0Z"/>
        <path class="st2" d="M28,39.8h0c0,0,.1,0,.1-.1,0,0,0,0-.1.1Z"/>
        <path class="st2" d="M66.6,37.1c0,0,0-.1,0-.2,0,0,0,0,0,.2,0,0,0,0,0,0h0Z"/>
      </g>
    </g>
  </g>
</svg>